<?xml version="1.0" encoding="utf-8"?>
<!-- Generator: Adobe Illustrator 24.1.2, SVG Export Plug-In . SVG Version: 6.00 Build 0)  -->
<svg version="1.1" id="Layer_1" xmlns="http://www.w3.org/2000/svg" xmlns:xlink="http://www.w3.org/1999/xlink" x="0px" y="0px"
	 viewBox="0 0 480 480" style="enable-background:new 0 0 480 480;" xml:space="preserve">
<g>
	<path d="M270.4,319.7c-28.1,0-55.7,0-83.4,0c-11.4-38.8,3-82,36.3-107c13.2-9.9,27.7-18,41.2-27.4c15.5-10.9,28.4-23.7,31.6-43.8
		c4.8-29.9-9.4-52.8-38.4-61c-38.7-10.9-74.3,6.9-83,41.7c-1.4,5.6-2,11.4-3,17.6c-28.5,0-57,0-86.4,0c0.5-38.3,11-71.9,38.7-98.7
		c24.3-23.6,54.3-34.8,87.2-38.9c38.5-4.8,76.3-1.9,112.1,14.6c76.7,35.5,83.3,115.5,59,163c-11.2,21.8-28.7,37.6-48.9,50.7
		c-10.5,6.7-21.1,13.2-31.4,20.1c-21.3,14.3-32.7,33.9-30.8,60.3c0.2,2,0,4.1-0.1,6.1C270.9,317.5,270.7,318.1,270.4,319.7z"/>
	<path d="M177.1,429.7c0.1-30.8,20.7-50.1,53.4-49.8c32.5,0.2,52.9,20,52.6,50.8c-0.3,30.3-20.9,49.4-53.1,49.3
		C197.2,479.9,177,460.7,177.1,429.7z"/>
</g>
</svg>
