<?xml version="1.0" encoding="utf-8"?>
<!-- Generator: Adobe Illustrator 24.1.2, SVG Export Plug-In . SVG Version: 6.00 Build 0)  -->
<svg version="1.1" id="Layer_1" xmlns="http://www.w3.org/2000/svg" xmlns:xlink="http://www.w3.org/1999/xlink" x="0px" y="0px"
	 viewBox="0 0 24 24" style="enable-background:new 0 0 24 24;" xml:space="preserve">
<style type="text/css">
	.st0{fill:none;stroke:#FFFFFF;stroke-width:2;stroke-linecap:round;stroke-linejoin:round;}
</style>
<path class="st0" d="M17.9,17.9c-1.7,1.3-3.8,2-5.9,2.1c-7,0-11-8-11-8c1.2-2.3,3-4.3,5.1-5.9 M9.9,4.2C10.6,4.1,11.3,4,12,4
	c7,0,11,8,11,8c-0.6,1.1-1.3,2.2-2.2,3.2 M14.1,14.1c-1.1,1.2-3,1.3-4.2,0.1s-1.3-3-0.1-4.2c0-0.1,0.1-0.1,0.1-0.1"/>
<line class="st0" x1="1" y1="1" x2="23" y2="23"/>
</svg>
