<?xml version="1.0" encoding="utf-8"?>
<!-- Generator: Adobe Illustrator 24.1.2, SVG Export Plug-In . SVG Version: 6.00 Build 0)  -->
<svg version="1.1" id="Layer_1" xmlns="http://www.w3.org/2000/svg" xmlns:xlink="http://www.w3.org/1999/xlink" x="0px" y="0px"
	 viewBox="0 0 480 480" style="enable-background:new 0 0 480 480;" xml:space="preserve">
<g>
	<path d="M264.2,319.7c-28.8,0-56.6,0-84.3,0c-11.4-38.8,3-82,36.4-107c13.2-9.9,27.8-18,41.3-27.4c15.5-10.9,28.5-23.7,31.7-43.8
		c4.8-29.9-9.4-52.8-38.5-61c-38.8-10.9-74.6,6.9-83.3,41.7c-1.4,5.6-2,11.4-3,17.6c-28.6,0-57.2,0-86.7,0
		c0.5-38.3,11.1-71.9,38.8-98.7C140.9,17.4,171,6.2,204,2.1c38.7-4.8,76.6-1.9,112.5,14.6c77,35.5,83.6,115.4,59.2,163
		c-11.2,21.8-28.8,37.6-49.1,50.7c-10.5,6.7-21.2,13.2-31.6,20.1c-21.4,14.3-32.9,33.9-30.9,60.3C264.3,313.4,264.2,316,264.2,319.7
		z"/>
	<path d="M169.9,430.1c0-31,20.4-50.3,53.1-50.3c32.6,0,53.3,19.6,53.2,50.4c-0.1,30.4-20.4,49.6-52.8,49.8
		C190.6,480.2,169.9,460.9,169.9,430.1z"/>
</g>
</svg>
