<?xml version="1.0" encoding="utf-8"?>
<!-- Generator: Adobe Illustrator 24.1.2, SVG Export Plug-In . SVG Version: 6.00 Build 0)  -->
<svg version="1.1" id="Layer_1" xmlns="http://www.w3.org/2000/svg" xmlns:xlink="http://www.w3.org/1999/xlink" x="0px" y="0px"
	 viewBox="0 0 24 24" style="enable-background:new 0 0 24 24;" xml:space="preserve">
<style type="text/css">
	.st0{fill:#FFFFFF;stroke:#FFFFFF;stroke-width:2;stroke-linecap:round;stroke-linejoin:round;}
</style>
<path class="st0" d="M14.7,6.3c-0.4,0.4-0.4,1,0,1.4l1.6,1.6c0.4,0.4,1,0.4,1.4,0l3.8-3.8c1.4,3,0,6.6-3,7.9c-1.6,0.7-3.4,0.7-4.9,0
	l-6.9,6.9c-0.8,0.8-2.2,0.8-3,0s-0.8-2.2,0-3l6.9-6.9c-1.4-3,0-6.6,3-7.9c1.6-0.7,3.4-0.7,4.9,0L14.7,6.3L14.7,6.3z"/>
</svg>
