<?xml version="1.0" encoding="utf-8"?>
<!-- Generator: Adobe Illustrator 24.1.2, SVG Export Plug-In . SVG Version: 6.00 Build 0)  -->
<svg version="1.1" id="Layer_1" xmlns="http://www.w3.org/2000/svg" xmlns:xlink="http://www.w3.org/1999/xlink" x="0px" y="0px"
	 viewBox="0 0 480 76" style="enable-background:new 0 0 480 76;" xml:space="preserve">
<style type="text/css">
	.st0{fill:#02CB02;}
	.st1{fill:#FFFFFF;}
</style>
<g>
	<path class="st0" d="M480.4,39.8c-0.3,0.7-0.2,1.5-0.4,2.3c-0.6,3.4-1.6,6.7-3.8,9.5c-1.7,2.2-4,3.7-6.4,4.9
		c-5.2,2.7-10.7,3.5-16.5,2.8c-4.4-0.5-8.4-2-12-4.4s-5.9-5.8-7-10c-1.3-5.1-1.3-10.3,0.1-15.4c1.4-5,4.6-8.6,9.2-11.1
		c3.6-2,7.5-2.9,11.5-3.1c4.7-0.2,9.3,0.3,13.6,2.4c4.8,2.3,8.5,5.6,10.3,10.7c0.7,1.8,1.1,3.7,1.2,5.6c0,0.1-0.1,0.3,0.1,0.4
		C480.4,36.3,480.4,38.1,480.4,39.8z M442.1,37.6c0,1.1,0.1,2.5,0.3,3.8c0.7,4.2,2.6,7.7,6.3,10c3.1,1.9,6.5,2.5,10,2.2
		c5.9-0.5,9.9-3.6,11.8-9.1c1.5-4.2,1.5-8.5,0.5-12.8s-3.6-7.2-7.6-9c-3.9-1.7-7.9-1.8-11.8-0.5c-4.2,1.4-7.1,4.2-8.5,8.4
		C442.3,32.7,442.1,35,442.1,37.6z"/>
	<path class="st0" d="M0.4,16.3c0.1,0,0.1,0.1,0.1,0.2c0,3.8,0,7.6,0,11.5c0.1,0.1,0,0.1-0.1,0.2C0.4,24.2,0.4,20.2,0.4,16.3z"/>
	<path class="st1" d="M240.2,20.3c0-0.4,0-0.6,0-0.8c0-6.2,0-12.4,0-18.7c0-0.5,0.1-0.7,0.6-0.7c6.1,0,12.1,0,18.2,0
		c0.5,0,0.7,0.1,0.7,0.6c0,19,0,38.1,0,57.1c0,0.5-0.1,0.6-0.6,0.6c-5.6,0-11.3,0-16.9,0c-0.5,0-0.6-0.1-0.6-0.6c0-1.6,0-3.2,0-4.9
		c0-0.2,0-0.4,0-0.7c-0.6,0.6-1.1,1-1.6,1.5c-3.7,3.8-8.3,5.4-13.5,5.6c-3.4,0.1-6.6-0.3-9.8-1.5c-4.2-1.6-7.1-4.6-9.3-8.5
		c-2.3-4-3.1-8.4-3.1-12.9c0-3.3,0.5-6.5,1.8-9.5c2.2-5.3,6.2-8.8,11.6-10.5c6.2-2,12.4-1.7,18.4,1.1
		C237.7,18.3,238.9,19.2,240.2,20.3z M223.7,36.8c0,1.5,0.1,2.6,0.2,3.7c0.6,4.3,3.6,7,7.8,7.1c3.9,0.1,7.1-2.2,8.1-5.8
		c0.6-2,0.7-4.1,0.5-6.2c-0.2-2.2-0.9-4.2-2.6-5.8c-1.7-1.6-3.7-2.3-6-2.3c-3.4-0.1-6.1,1.8-7.2,4.6
		C223.9,33.6,223.8,35.4,223.7,36.8z"/>
	<path class="st1" d="M163.6,23.1c1.7-1.8,3.4-3.2,5.3-4.5c3.4-2.3,7.3-3.2,11.4-3.3c3.2-0.1,6.3,0.1,9.3,1.2
		c4.8,1.8,7.7,5.2,8.8,10.2c0.4,1.7,0.5,3.5,0.5,5.3c0,8.6,0,17.2,0,25.8c0,0.5-0.1,0.7-0.7,0.7c-6,0-12.1,0-18.1,0
		c-0.5,0-0.6-0.1-0.6-0.6c0-7.6,0-15.2,0-22.8c0-1-0.1-2-0.4-2.9c-0.5-1.9-1.7-3.2-3.5-3.7c-2-0.6-4.1-0.6-6.1,0.2
		c-2.6,1.1-3.7,3.2-4.2,5.8c-0.2,1.3-0.3,2.6-0.3,3.9c0,6.5,0,13,0,19.5c0,0.6-0.2,0.7-0.7,0.7c-6,0-11.9,0-17.9,0
		c-0.6,0-0.7-0.2-0.7-0.7c0-13.7,0-27.3,0-41c0-0.5,0.1-0.6,0.6-0.6c5.6,0,11.2,0,16.8,0c0.5,0,0.6,0.1,0.6,0.6
		C163.6,18.9,163.6,20.9,163.6,23.1z"/>
	<path class="st1" d="M139,47.6c-1.2,1.7-2.4,3.2-3.9,4.6c-3.9,3.8-8.7,5.8-14.1,6.6c-3.6,0.5-7.2,0.7-10.8,0.7
		c-4.4-0.1-8.9-0.3-13.1-1.7c-7.3-2.4-12.4-7.1-14.4-14.5c-1.8-6.6-0.9-12.9,3.4-18.4c3.2-4.1,7.5-6.6,12.5-8.1
		c4.3-1.2,8.7-1.6,13.2-1.5c4,0.1,8,0.4,11.9,1.5c5.3,1.5,9.8,4.2,12.9,8.8c1.8,2.7,2.7,5.7,3.2,8.9c0.3,2.1,0.4,4.2,0.4,6.3
		c0,0.5-0.1,0.7-0.7,0.7c-9.8,0-19.6,0-29.4,0c-2.6,0-5.3,0-7.9,0c-0.5,0-0.6,0.1-0.5,0.6c0.9,5.8,5.3,7.9,9.3,7.9
		c3.4,0.1,6.4-1,8.8-3.6c0.2-0.3,0.5-0.3,0.8-0.3c3.3,0.3,6.6,0.5,9.9,0.8c2.4,0.2,4.8,0.4,7.2,0.6C138.1,47.5,138.5,47.5,139,47.6z
		 M111,33.7c2.6,0,5.3,0,7.9,0c0.5,0,1.3,0.2,1.5-0.1s-0.1-1-0.2-1.5c-0.6-2.7-1.8-5-4.5-6.2c-1.4-0.7-2.9-0.9-4.5-0.9
		c-2.9,0-5.5,0.8-7.5,3c-1.3,1.5-1.8,3.3-2.2,5.2c-0.1,0.5,0.1,0.5,0.5,0.5C105.1,33.6,108,33.7,111,33.7z"/>
	<path class="st1" d="M0.5,27.9c0-3.8,0-7.6,0-11.5c0.1-0.3,0.4-0.2,0.6-0.2c2,0,3.9,0,5.9,0c0.5,0,0.7-0.1,0.7-0.6
		c0-2.2,0-4.4,0-6.6c0-0.4,0.1-0.6,0.5-0.8C14.3,5.6,20.4,3,26.4,0.3C27,0,27,0.2,27,0.7c0,4.9,0,9.8,0,14.7c0,0.6,0.2,0.7,0.7,0.7
		c3.1,0,6.2,0,9.3,0c0.4,0,0.6,0,0.6,0.5c0,3.6,0,7.2,0,10.8c0,0.5-0.1,0.6-0.6,0.6c-3.1,0-6.3,0-9.4,0c-0.5,0-0.6,0.1-0.6,0.6
		c0,4.8,0,9.6,0,14.4c0,0.8,0.1,1.6,0.2,2.3c0.2,1.3,1,2,2.3,2.4c1.5,0.4,3,0.1,4.5-0.2c0.8-0.2,1.6-0.3,2.5-0.6
		c0.4-0.1,0.4,0,0.5,0.3c0.3,2.4,0.6,4.7,0.9,7.1c0.1,1.1,0.2,2.2,0.4,3.2c0.1,0.4-0.1,0.5-0.4,0.5c-2.5,0.5-5,0.8-7.6,1
		c-3.3,0.3-6.7,0.4-10,0c-2.7-0.3-5.3-0.7-7.6-2.3c-2.6-1.8-3.9-4.3-4.4-7.2c-0.4-2-0.5-3.9-0.5-5.9c0-5,0-10,0-15
		c0-0.6-0.2-0.7-0.7-0.7c-1.9,0-3.9,0-5.8,0C0.9,28.1,0.6,28.3,0.5,27.9z"/>
	<path class="st1" d="M374,21.3c0-1.4,0-2.9,0-4.3c0-0.6,0.1-0.7,0.7-0.7c2.2,0,4.5,0,6.7,0c0.4,0,0.5,0.1,0.5,0.5c0,12,0,24,0,36
		c0,3.2-0.2,6.4-0.9,9.6c-1.1,5.3-4.3,8.8-9.2,10.9c-3.3,1.4-6.7,2-10.2,2.2c-4.1,0.2-8.2,0-12.2-1.3c-2.6-0.8-5.1-1.9-7.1-3.9
		c-2.2-2.3-2.9-5.1-3-8.1c0-0.3,0.1-0.3,0.3-0.3c2.5,0.3,5,0.7,7.6,1c0.2,0,0.4,0.1,0.4,0.3c0.7,3.4,3,5.1,6.2,5.8
		c4.1,0.9,8.1,0.9,12.1-0.3c3.6-1.1,5.9-3.5,6.6-7.3c0.5-2.7,0.6-5.5,0.6-8.4c-0.3,0.1-0.5,0.4-0.7,0.6c-3.4,3.1-7.4,4.6-11.9,4.8
		c-6.1,0.3-11.7-1.1-16.3-5.4c-3.6-3.4-5.7-7.5-6.4-12.4c-0.6-4.5-0.2-8.9,1.6-13.1c3-6.7,8.1-10.7,15.5-11.9
		c3.5-0.5,7-0.5,10.5,0.5c3.1,0.9,5.8,2.5,8,4.8c0.1,0.1,0.2,0.2,0.3,0.3C373.8,21.3,373.9,21.3,374,21.3z M373.9,36.9
		c0-3-0.4-5.9-1.8-8.5c-2.3-4.2-5.9-6.6-10.7-7.1c-6.8-0.6-12,2.9-14,8.8c-1.4,3.9-1.3,7.9-0.5,11.8c0.5,2.4,1.3,4.7,3.1,6.5
		c4,4.1,8.9,5.2,14.2,3.7c4.3-1.2,7.5-3.9,8.8-8.3C373.6,41.5,373.9,39.2,373.9,36.9z"/>
	<path class="st1" d="M61.4,22.9c1.1-1.5,2-2.9,3.3-4.2c1.9-1.9,4.2-2.9,6.8-3.2C75.4,15,79,16,82.6,17.4c0.3,0.1,0.3,0.2,0.2,0.5
		c-1.9,3.6-3.7,7.2-5.6,10.8c-0.2,0.4-0.4,0.4-0.7,0.3c-1.6-0.6-3.3-1-5-1c-3.2,0-5.5,1.5-6.9,4.4c-1,2.2-1.4,4.5-1.6,6.8
		c-0.5,5.3-0.2,10.5-0.2,15.8c0,1,0,2,0,3c0,0.5-0.1,0.6-0.6,0.6c-2.3,0-4.6,0-7,0c-3.7,0-7.5,0-11.2,0c-0.5,0-0.6-0.1-0.6-0.6
		c0-13.7,0-27.4,0-41.1c0-0.4,0.1-0.6,0.6-0.6c5.7,0,11.3,0,17,0c0.4,0,0.6,0.1,0.6,0.5c0,1.8,0,3.7,0,5.5
		C61.4,22.5,61.4,22.7,61.4,22.9z"/>
	<path class="st1" d="M310.7,15.4c5,0,9.8,1,14.2,3.6c5.5,3.4,8.5,8.3,9.2,14.7c0.4,3.7,0.2,7.5-0.8,11.1c-1.3,5-4.2,8.7-8.7,11.1
		c-9,4.8-18.2,4.9-27.3,0.3c-5.8-2.9-8.9-7.8-9.8-14.2c-0.5-4-0.5-8,0.6-11.9c1.4-5.4,4.8-9.3,9.7-11.8c3.6-1.9,7.4-2.8,11.5-2.9
		C309.7,15.3,310.2,15.4,310.7,15.4z M325.5,36.9c-0.1-1.1-0.1-2.5-0.3-3.9c-0.8-4.7-3.3-8.2-7.6-10.3c-3.2-1.5-6.5-1.9-9.9-1.2
		c-5.3,1-9,3.9-10.7,9c-1.3,4.1-1.3,8.2-0.4,12.4c1,4.3,3.5,7.4,7.5,9.3c2.9,1.4,5.9,1.6,9,1.3c4.6-0.5,8.1-2.7,10.4-6.9
		C324.9,43.7,325.4,40.5,325.5,36.9z"/>
	<path class="st1" d="M272,29.4c0-9.5,0-19,0-28.5c0-0.6,0.2-0.7,0.7-0.7c2.4,0,4.9,0,7.3,0c0.4,0,0.5,0.1,0.5,0.5
		c0,19.1,0,38.1,0,57.2c0,0.5-0.1,0.6-0.6,0.6c-2.4,0-4.9,0-7.3,0c-0.5,0-0.6-0.1-0.6-0.6C272,48.4,272,38.9,272,29.4z"/>
	<path class="st0" d="M426.7,37.4c0,6.8,0,13.6,0,20.4c0,0.5-0.1,0.7-0.7,0.7c-2.4,0-4.9,0-7.3,0c-0.4,0-0.6-0.1-0.6-0.5
		c0-13.7,0-27.5,0-41.2c0-0.4,0.1-0.5,0.5-0.5c2.5,0,5,0,7.5,0c0.5,0,0.5,0.2,0.5,0.6C426.7,23.7,426.7,30.6,426.7,37.4z"/>
	<path class="st1" d="M398.3,58.5c-1.5,0-2.9,0-4.4,0c-0.4,0-0.5-0.1-0.5-0.5c0-2.4,0-4.8,0-7.2c0-0.4,0.1-0.5,0.5-0.5
		c2.9,0,5.9,0,8.8,0c0.4,0,0.5,0.1,0.5,0.5c0,2.4,0,4.8,0,7.1c0,0.4-0.1,0.6-0.5,0.6C401.2,58.5,399.7,58.5,398.3,58.5z"/>
	<path class="st0" d="M422.4,8.3c-1.2,0-2.4,0-3.6,0c-0.4,0-0.6-0.1-0.6-0.5c0-2.4,0-4.7,0-7.1c0-0.4,0.1-0.5,0.5-0.5
		c2.5,0,5,0,7.5,0c0.3,0,0.5,0.1,0.5,0.4c0,2.4,0,4.8,0,7.3c0,0.4-0.1,0.4-0.5,0.4C425,8.3,423.7,8.3,422.4,8.3z"/>
</g>
</svg>
